<svg width="600" height="600" xmlns="http://www.w3.org/2000/svg">

 <g>
  <title>Layer 1</title>
  <g stroke="null">
   <g stroke="null">
    <path stroke="null" opacity="0.96" d="m57.80393,200.02941c19.14385,0 38.28751,0 57.43136,0c18.2206,3.27032 33.07353,13.75645 44.55882,31.45842c2.52579,5.3656 4.50618,11.0119 5.94118,16.93915c3.51322,54.04533 3.84315,108.0892 0.9902,162.13186c-11.22229,0 -22.44438,0 -33.66666,0c-1.05812,-51.57003 -2.70838,-103.19403 -4.95098,-154.87223c-7.19892,-23.60156 -21.3918,-34.89431 -42.57843,-33.8783c-15.47736,-0.82244 -29.00997,4.82403 -40.59803,16.93915c-0.35013,57.44574 -1.34033,114.71628 -2.97059,171.81138c-11.22229,0 -22.44443,0 -33.66666,0c0,-62.91684 0,-125.83368 0,-188.75053c2.99093,-3.2331 6.29159,-6.05628 9.90196,-8.46957c13.28467,-5.26065 26.48735,-9.69708 39.60784,-13.30933z" fill="#780000"/>
   </g>
   <g stroke="null">
    <path stroke="null" opacity="0.946" d="m243.96077,200.02941c19.80392,0 39.60784,0 59.41176,0c16.48874,4.23573 30.68221,13.91525 42.57843,29.03854c2.525,5.3656 4.50539,11.0119 5.94118,16.93915c2.22596,28.50423 3.21616,57.13962 2.97059,85.90569c-0.02178,26.39434 -0.68125,52.60985 -1.98039,78.64605c-11.22288,0 -22.44378,0 -33.66666,0c-1.03376,-53.25548 -2.68541,-106.4928 -4.95098,-159.71198c-9.24051,-19.97537 -23.43398,-29.65496 -42.57843,-29.03854c-14.31031,-0.39722 -27.18286,4.44241 -38.61764,14.51927c-0.36835,58.18017 -1.35855,116.25726 -2.97059,174.23125c-11.22288,0 -22.44378,0 -33.66666,0c-2.29032,-61.93534 -2.62045,-124.04564 -0.9902,-186.33065c3.56589,-6.4451 8.51687,-10.88154 14.85294,-13.30933c11.39319,-4.08067 22.6141,-7.71048 33.66666,-10.88945z" fill="#780000"/>
   </g>
   <g stroke="null">
    <path stroke="null" opacity="0.928" d="m416.25486,410.55884c-11.22288,0 -22.44378,0 -33.66666,0c-2.27547,-66.84769 -2.6062,-133.79775 -0.9902,-200.84992c0.9902,-1.20994 1.98039,-2.41988 2.97059,-3.62982c9.90196,-1.61326 19.80392,-1.61326 29.70588,0c0.9902,1.20994 1.98039,2.41988 2.97059,3.62982c1.63184,67.12428 1.30112,134.0741 -0.9902,200.84992z" fill="#780000"/>
   </g>
   <g stroke="null">
    <path stroke="null" opacity="0.957" d="m590.52935,207.28905c0,9.67951 0,19.35903 0,29.03854c-18.49488,-0.40291 -36.97986,0.00048 -55.45097,1.20994c-0.9902,1.20994 -1.98039,2.41988 -2.97059,3.62982c-0.9902,56.45819 -1.32092,112.92194 -0.9902,169.3915c-11.22288,0 -22.44378,0 -33.66666,0c-1.62986,-57.0951 -2.62006,-114.36564 -2.97059,-171.81138c-18.66123,-1.98357 -37.47496,-3.19351 -56.44117,-3.62982c-2.22992,-9.05906 -2.56065,-18.33535 -0.9902,-27.8286c51.15946,-3.2159 102.32091,-3.2159 153.48037,0z" fill="#780000"/>
   </g>
  </g>
 </g>
</svg>